<svg width="80" height="80" viewBox="0 0 80 80" fill="none" xmlns="http://www.w3.org/2000/svg">
<path d="M9.99967 70C8.16634 70 6.59745 69.3478 5.29301 68.0433C3.98856 66.7389 3.33523 65.1689 3.33301 63.3333V23.3333C3.33301 21.5 3.98634 19.9311 5.29301 18.6266C6.59967 17.3222 8.16856 16.6689 9.99967 16.6666H20.4997L26.6663 9.99998H46.6663V16.6666H29.583L23.4997 23.3333H9.99967V63.3333H63.333V33.3333H69.9997V63.3333C69.9997 65.1666 69.3475 66.7366 68.043 68.0433C66.7386 69.35 65.1686 70.0022 63.333 70H9.99967ZM63.333 23.3333V16.6666H56.6663V9.99998H63.333V3.33331H69.9997V9.99998H76.6663V16.6666H69.9997V23.3333H63.333ZM36.6663 58.3333C40.833 58.3333 44.3752 56.8755 47.293 53.96C50.2108 51.0444 51.6686 47.5022 51.6663 43.3333C51.6641 39.1644 50.2063 35.6233 47.293 32.71C44.3797 29.7966 40.8375 28.3378 36.6663 28.3333C32.4952 28.3289 28.9541 29.7878 26.043 32.71C23.1319 35.6322 21.673 39.1733 21.6663 43.3333C21.6597 47.4933 23.1186 51.0355 26.043 53.96C28.9675 56.8844 32.5086 58.3422 36.6663 58.3333ZM36.6663 51.6666C34.333 51.6666 32.3608 50.8611 30.7497 49.25C29.1386 47.6389 28.333 45.6666 28.333 43.3333C28.333 41 29.1386 39.0278 30.7497 37.4166C32.3608 35.8055 34.333 35 36.6663 35C38.9997 35 40.9719 35.8055 42.583 37.4166C44.1941 39.0278 44.9997 41 44.9997 43.3333C44.9997 45.6666 44.1941 47.6389 42.583 49.25C40.9719 50.8611 38.9997 51.6666 36.6663 51.6666Z" fill="#747474"/>
</svg>
