<svg width="32" height="32" viewBox="0 0 32 32" fill="none" xmlns="http://www.w3.org/2000/svg">
<g clip-path="url(#clip0_6_114)">
<path fill-rule="evenodd" clip-rule="evenodd" d="M7.29343 7.29331C7.48093 7.10604 7.7351 7.00085 8.0001 7.00085C8.2651 7.00085 8.51926 7.10604 8.70676 7.29331L24.7068 23.2933C24.805 23.3849 24.8838 23.4953 24.9385 23.6179C24.9931 23.7406 25.0225 23.873 25.0249 24.0073C25.0273 24.1415 25.0026 24.2749 24.9523 24.3994C24.902 24.524 24.8271 24.6371 24.7321 24.732C24.6372 24.827 24.5241 24.9018 24.3996 24.9521C24.275 25.0024 24.1417 25.0271 24.0074 25.0248C23.8731 25.0224 23.7407 24.993 23.618 24.9383C23.4954 24.8837 23.385 24.8049 23.2934 24.7066L7.29343 8.70664C7.10616 8.51914 7.00098 8.26498 7.00098 7.99997C7.00098 7.73497 7.10616 7.48081 7.29343 7.29331Z" fill="black"/>
<path fill-rule="evenodd" clip-rule="evenodd" d="M24.7071 7.29331C24.8944 7.48081 24.9996 7.73497 24.9996 7.99997C24.9996 8.26498 24.8944 8.51914 24.7071 8.70664L8.70711 24.7066C8.51755 24.8833 8.26682 24.9794 8.00775 24.9749C7.74868 24.9703 7.5015 24.8654 7.31828 24.6821C7.13507 24.4989 7.03012 24.2517 7.02555 23.9927C7.02098 23.7336 7.11714 23.4829 7.29378 23.2933L23.2938 7.29331C23.4813 7.10604 23.7354 7.00085 24.0004 7.00085C24.2654 7.00085 24.5196 7.10604 24.7071 7.29331Z" fill="black"/>
</g>
<defs>
<clipPath id="clip0_6_114">
<rect width="32" height="32" fill="white"/>
</clipPath>
</defs>
</svg>
