<svg width="32" height="32" viewBox="0 0 32 32" fill="none" xmlns="http://www.w3.org/2000/svg">
<path fill-rule="evenodd" clip-rule="evenodd" d="M7.29343 7.29333C7.48093 7.10607 7.7351 7.00088 8.0001 7.00088C8.2651 7.00088 8.51926 7.10607 8.70676 7.29333L24.7068 23.2933C24.805 23.3849 24.8838 23.4953 24.9385 23.6179C24.9931 23.7406 25.0225 23.873 25.0249 24.0073C25.0273 24.1416 25.0026 24.2749 24.9523 24.3995C24.902 24.524 24.8271 24.6371 24.7321 24.7321C24.6372 24.827 24.5241 24.9019 24.3996 24.9522C24.275 25.0025 24.1417 25.0272 24.0074 25.0248C23.8731 25.0224 23.7407 24.993 23.618 24.9384C23.4954 24.8837 23.385 24.8049 23.2934 24.7067L7.29343 8.70667C7.10616 8.51917 7.00098 8.265 7.00098 8C7.00098 7.735 7.10616 7.48083 7.29343 7.29333Z" fill="black"/>
<path fill-rule="evenodd" clip-rule="evenodd" d="M24.7071 7.29333C24.8944 7.48083 24.9996 7.735 24.9996 8C24.9996 8.265 24.8944 8.51917 24.7071 8.70667L8.70711 24.7067C8.51755 24.8833 8.26682 24.9795 8.00775 24.9749C7.74868 24.9703 7.5015 24.8654 7.31828 24.6822C7.13507 24.4989 7.03012 24.2518 7.02555 23.9927C7.02098 23.7336 7.11714 23.4829 7.29378 23.2933L23.2938 7.29333C23.4813 7.10607 23.7354 7.00088 24.0004 7.00088C24.2654 7.00088 24.5196 7.10607 24.7071 7.29333Z" fill="black"/>
</svg>
