<svg width="32" height="32" viewBox="0 0 32 32" fill="none" xmlns="http://www.w3.org/2000/svg">
<g clip-path="url(#clip0_6_248)">
<g clip-path="url(#clip1_6_248)">
<path fill-rule="evenodd" clip-rule="evenodd" d="M3.20046 6.4C2.91756 6.4 2.64625 6.51238 2.44621 6.71242C2.24617 6.91246 2.13379 7.18377 2.13379 7.46667C2.13379 7.74957 2.24617 8.02088 2.44621 8.22092C2.64625 8.42095 2.91756 8.53333 3.20046 8.53333H28.8005C29.0834 8.53333 29.3547 8.42095 29.5547 8.22092C29.7547 8.02088 29.8671 7.74957 29.8671 7.46667C29.8671 7.18377 29.7547 6.91246 29.5547 6.71242C29.3547 6.51238 29.0834 6.4 28.8005 6.4H3.20046ZM2.13379 16C2.13379 15.7171 2.24617 15.4458 2.44621 15.2458C2.64625 15.0457 2.91756 14.9333 3.20046 14.9333H28.8005C29.0834 14.9333 29.3547 15.0457 29.5547 15.2458C29.7547 15.4458 29.8671 15.7171 29.8671 16C29.8671 16.2829 29.7547 16.5542 29.5547 16.7542C29.3547 16.9543 29.0834 17.0667 28.8005 17.0667H3.20046C2.91756 17.0667 2.64625 16.9543 2.44621 16.7542C2.24617 16.5542 2.13379 16.2829 2.13379 16ZM2.13379 24.5333C2.13379 24.2504 2.24617 23.9791 2.44621 23.7791C2.64625 23.579 2.91756 23.4667 3.20046 23.4667H28.8005C29.0834 23.4667 29.3547 23.579 29.5547 23.7791C29.7547 23.9791 29.8671 24.2504 29.8671 24.5333C29.8671 24.8162 29.7547 25.0875 29.5547 25.2876C29.3547 25.4876 29.0834 25.6 28.8005 25.6H3.20046C2.91756 25.6 2.64625 25.4876 2.44621 25.2876C2.24617 25.0875 2.13379 24.8162 2.13379 24.5333Z" fill="black"/>
</g>
</g>
<defs>
<clipPath id="clip0_6_248">
<rect width="32" height="32" fill="white"/>
</clipPath>
<clipPath id="clip1_6_248">
<rect width="32" height="32" fill="white"/>
</clipPath>
</defs>
</svg>
