<svg width="32" height="32" viewBox="0 0 32 32" fill="none" xmlns="http://www.w3.org/2000/svg">
<path d="M23.9997 8H21.333C21.333 5.05333 18.9463 2.66666 15.9997 2.66666C13.053 2.66666 10.6663 5.05333 10.6663 8H7.99967C6.53301 8 5.33301 9.2 5.33301 10.6667V26.6667C5.33301 28.1333 6.53301 29.3333 7.99967 29.3333H23.9997C25.4663 29.3333 26.6663 28.1333 26.6663 26.6667V10.6667C26.6663 9.2 25.4663 8 23.9997 8ZM15.9997 5.33333C17.4663 5.33333 18.6663 6.53333 18.6663 8H13.333C13.333 6.53333 14.533 5.33333 15.9997 5.33333ZM23.9997 26.6667H7.99967V10.6667H10.6663V13.3333C10.6663 14.0667 11.2663 14.6667 11.9997 14.6667C12.733 14.6667 13.333 14.0667 13.333 13.3333V10.6667H18.6663V13.3333C18.6663 14.0667 19.2663 14.6667 19.9997 14.6667C20.733 14.6667 21.333 14.0667 21.333 13.3333V10.6667H23.9997V26.6667Z" fill="black"/>
</svg>
