<svg width="25" height="25" viewBox="0 0 25 25" fill="none" xmlns="http://www.w3.org/2000/svg">
<path d="M7.292 21.875C6.71908 21.875 6.2288 21.6712 5.82116 21.2635C5.41352 20.8559 5.20936 20.3653 5.20866 19.7917V6.25C4.91352 6.25 4.6663 6.15 4.467 5.95C4.26769 5.75 4.16769 5.50278 4.167 5.20833C4.1663 4.91389 4.2663 4.66667 4.467 4.46667C4.66769 4.26667 4.91491 4.16667 5.20866 4.16667H9.37533C9.37533 3.87153 9.47533 3.62431 9.67533 3.425C9.87533 3.22569 10.1226 3.12569 10.417 3.125H14.5837C14.8788 3.125 15.1264 3.225 15.3264 3.425C15.5264 3.625 15.626 3.87222 15.6253 4.16667H19.792C20.0871 4.16667 20.3347 4.26667 20.5347 4.46667C20.7347 4.66667 20.8344 4.91389 20.8337 5.20833C20.833 5.50278 20.733 5.75035 20.5337 5.95104C20.3344 6.15174 20.0871 6.25139 19.792 6.25V19.7917C19.792 20.3646 19.5882 20.8552 19.1805 21.2635C18.7729 21.6719 18.2823 21.8757 17.7087 21.875H7.292ZM17.7087 6.25H7.292V19.7917H17.7087V6.25ZM10.417 17.7083C10.7121 17.7083 10.9597 17.6083 11.1597 17.4083C11.3597 17.2083 11.4594 16.9611 11.4587 16.6667V9.375C11.4587 9.07986 11.3587 8.83264 11.1587 8.63333C10.9587 8.43403 10.7114 8.33403 10.417 8.33333C10.1226 8.33264 9.87533 8.43264 9.67533 8.63333C9.47533 8.83403 9.37533 9.08125 9.37533 9.375V16.6667C9.37533 16.9618 9.47533 17.2094 9.67533 17.4094C9.87533 17.6094 10.1226 17.709 10.417 17.7083ZM14.5837 17.7083C14.8788 17.7083 15.1264 17.6083 15.3264 17.4083C15.5264 17.2083 15.626 16.9611 15.6253 16.6667V9.375C15.6253 9.07986 15.5253 8.83264 15.3253 8.63333C15.1253 8.43403 14.8781 8.33403 14.5837 8.33333C14.2892 8.33264 14.042 8.43264 13.842 8.63333C13.642 8.83403 13.542 9.08125 13.542 9.375V16.6667C13.542 16.9618 13.642 17.2094 13.842 17.4094C14.042 17.6094 14.2892 17.709 14.5837 17.7083Z" fill="black"/>
</svg>
